<svg xmlns="http://www.w3.org/2000/svg" viewBox="0 0 2880 3710">
<g transform="translate(0,3710) scale(1,-1)" fill="#000" stroke="none">
<path d="M535 3654 c-110 -27 -222 -90 -305 -174 -89 -89 -136 -164 -166 -269
-27 -93 -26 -77 -25 -565 l1 -389 41 52 c86 108 261 218 409 257 47 13 126 19
290 24 188 5 234 10 281 26 170 60 306 195 371 370 21 56 23 77 26 372 l3 312
-433 -1 c-341 0 -446 -4 -493 -15z M523 2440 c-234 -61 -399 -222 -462 -450
-20 -70 -21 -100 -21 -530 l0 -455 53 56 c94 100 224 181 372 230 69 23 77 23
670 29 667 7 636 4 780 78 99 52 209 164 257 262 59 121 68 188 68 515 l0 285
-822 -1 c-773 0 -827 -1 -895 -19z M565 1183 c-203 -45 -373 -168 -459 -333
-88 -166 -89 -362 -4 -523 63 -118 178 -214 318 -265 l75 -27 902 -3 c1011 -3
979 -5 1130 69 152 73 273 217 329 389 15 47 18 104 22 378 l4 322 -1149 -1
c-631 -1 -1157 -3 -1168 -6z"/>
</g>
</svg>
