<svg xmlns="http://www.w3.org/2000/svg" viewBox="0 0 18280 3670" fill="#fff">
<g transform="translate(0,3670) scale(1,-1)">
<path d="M505 3644 c-110 -27 -222 -90 -305 -174 -89 -89 -136 -164 -166 -269
-27 -93 -26 -77 -25 -565 l1 -389 41 52 c86 108 261 218 409 257 47 13 126 19
290 24 188 5 234 10 281 26 170 60 306 195 371 370 21 56 23 77 26 372 l3 312
-433 -1 c-341 0 -446 -4 -493 -15z M12420 2480 c-336 -38 -560 -262 -560 -560
0 -129 50 -239 152 -335 109 -104 202 -143 503 -215 199 -47 244 -64 294 -106
42 -35 61 -79 61 -144 0 -129 -118 -224 -296 -237 -174 -14 -320 70 -374 213
-11 30 -20 59 -20 64 0 6 -11 10 -23 10 -27 0 -314 -57 -327 -65 -11 -7 13
-96 45 -161 118 -241 343 -364 665 -364 241 1 400 53 530 177 126 118 164 216
159 402 -4 112 -6 120 -42 195 -89 180 -225 261 -562 335 -248 55 -336 95
-375 170 -92 180 134 367 370 307 125 -32 193 -94 227 -205 9 -31 18 -57 19
-59 1 -1 76 16 168 39 187 47 180 40 145 134 -58 156 -175 281 -322 344 -117
50 -300 76 -437 61z M4310 1535 l0 -925 595 0 595 0 0 155 0 155 -405 0 -405
0 0 688 c0 378 -3 724 -7 770 l-6 82 -183 0 -184 0 0 -925z M7160 1535 l0
-925 170 0 170 0 0 82 0 81 58 -55 c103 -99 211 -138 377 -138 187 0 337 61
466 190 129 129 188 280 189 478 1 402 -274 694 -655 695 -149 0 -266 -41
-362 -127 -28 -25 -54 -46 -57 -46 -3 0 -6 155 -6 345 l0 345 -175 0 -175 0 0
-925z m833 85 c155 -48 251 -210 234 -394 -13 -142 -85 -249 -205 -308 -60
-30 -75 -33 -152 -33 -71 1 -95 5 -146 29 -223 102 -285 420 -117 606 97 108
240 145 386 100z M8800 1535 l0 -925 165 0 165 0 0 81 0 81 61 -56 c106 -98
208 -136 370 -136 190 0 337 57 459 179 132 131 190 279 190 482 0 225 -61
382 -204 524 -117 117 -270 178 -441 177 -146 0 -268 -47 -367 -140 l-48 -45
0 352 0 351 -175 0 -175 0 0 -925z m852 73 c148 -68 231 -241 200 -419 -14
-82 -39 -134 -90 -191 -166 -184 -465 -143 -578 79 -27 55 -29 65 -29 178 0
116 1 123 33 187 46 94 130 163 229 188 66 16 173 6 235 -22z M17059 2383 c-1
-43 -2 -459 -3 -925 l-1 -848 166 0 166 0 6 78 c3 42 6 142 6 222 l1 145 44
44 43 43 25 -33 c41 -57 261 -360 313 -431 l49 -68 199 0 199 0 -20 32 c-27
43 -125 178 -340 467 -171 230 -173 233 -155 255 10 11 70 77 134 146 122 133
311 341 343 378 l19 22 -209 0 -209 0 -213 -240 c-117 -132 -216 -240 -220
-240 -4 0 -7 44 -6 98 1 53 -1 285 -4 515 l-5 417 -164 0 -163 0 -1 -77z M493
2430 c-234 -61 -399 -222 -462 -450 -20 -70 -21 -100 -21 -530 l0 -455 53 56
c94 100 224 181 372 230 69 23 77 23 670 29 667 7 636 4 780 78 99 52 209 164
257 262 59 121 68 188 68 515 l0 285 -822 -1 c-773 0 -827 -1 -895 -19z
M13520 2100 l0 -190 -120 0 -120 0 0 -140 0 -140 120 0 120 0 0 -337 c0 -359
7 -429 50 -512 48 -95 129 -155 250 -186 112 -29 329 -8 388 38 15 12 16 127
1 214 -6 35 -13 63 -15 63 -1 0 -29 -7 -61 -15 -80 -21 -131 -19 -183 8 -80
41 -81 46 -78 407 l3 315 168 3 167 2 0 140 0 140 -170 0 -170 0 0 190 0 190
-175 0 -175 0 0 -190z M6185 1939 c-280 -41 -496 -213 -582 -463 -25 -74 -28
-94 -28 -221 0 -127 3 -147 27 -213 74 -203 226 -355 427 -425 75 -27 104 -31
218 -35 164 -5 250 12 383 75 79 38 109 59 176 127 91 91 141 180 170 301 25
106 15 294 -21 398 -74 213 -257 381 -478 436 -91 23 -214 32 -292 20z m176
-313 c110 -26 197 -98 248 -205 23 -49 26 -68 26 -161 0 -94 -3 -111 -29 -167
-35 -76 -104 -144 -184 -181 -48 -22 -71 -27 -142 -26 -72 0 -94 4 -148 28
-86 40 -153 114 -182 202 -32 94 -26 223 14 311 45 100 134 172 241 199 66 16
89 16 156 0z M14798 1939 c-83 -11 -212 -57 -271 -97 -52 -36 -96 -85 -131
-144 -27 -47 -61 -156 -52 -165 3 -4 68 -15 143 -25 75 -10 144 -19 152 -21 9
-1 22 17 35 50 40 97 90 132 201 140 151 12 255 -64 255 -186 0 -67 -30 -80
-255 -106 -185 -22 -265 -40 -351 -81 -89 -42 -164 -119 -191 -196 -26 -77
-24 -214 6 -291 42 -107 158 -198 289 -226 68 -14 206 -14 274 0 81 17 172 64
211 109 19 22 37 40 40 40 4 0 7 -12 7 -27 0 -16 3 -45 6 -65 l7 -38 148 0
149 0 0 448 c0 479 -4 530 -48 620 -73 149 -214 235 -427 261 -99 12 -102 12
-197 0z m332 -826 c0 -103 -13 -146 -62 -199 -54 -58 -111 -79 -218 -79 -68 0
-92 4 -120 21 -77 45 -103 136 -57 205 33 50 96 77 222 94 61 9 133 20 160 24
28 5 56 9 63 10 9 1 12 -21 12 -76z M16215 1940 c-170 -26 -286 -82 -396 -190
-88 -87 -142 -177 -178 -295 -31 -104 -35 -285 -7 -385 49 -181 180 -343 338
-419 47 -23 116 -48 154 -56 88 -19 250 -19 338 0 190 40 375 197 431 366 10
28 15 52 14 54 -2 2 -72 19 -156 37 l-152 35 -33 -56 c-106 -179 -361 -202
-512 -46 -57 58 -87 135 -94 239 -11 179 56 309 196 378 59 29 76 33 147 33
62 0 92 -6 133 -24 59 -26 124 -94 144 -147 7 -19 17 -33 23 -31 5 2 76 19
158 38 94 21 147 38 147 46 0 23 -33 97 -68 153 -96 154 -249 243 -463 270
-91 11 -91 11 -164 0z M10373 1458 c3 -426 4 -457 24 -514 75 -225 245 -344
488 -344 146 0 244 37 338 129 l59 56 -4 -145 c-3 -127 -6 -151 -27 -193 -47
-97 -139 -142 -275 -135 -123 7 -194 53 -233 151 -16 39 -17 39 -57 32 -63
-10 -258 -35 -273 -35 -34 0 4 -123 68 -219 100 -150 282 -231 517 -231 307 0
540 159 607 415 13 51 15 164 15 772 l0 713 -169 0 -169 0 -4 -382 c-5 -361
-6 -386 -26 -438 -47 -120 -140 -184 -267 -184 -127 0 -222 67 -254 179 -8 26
-12 177 -14 430 l-2 390 -173 3 -173 2 4 -452z M535 1173 c-203 -45 -373 -168
-459 -333 -88 -166 -89 -362 -4 -523 63 -118 178 -214 318 -265 l75 -27 902
-3 c1011 -3 979 -5 1130 69 152 73 273 217 329 389 15 47 18 104 22 378 l4
322 -1149 -1 c-631 -1 -1157 -3 -1168 -6z"/>
</g>
</svg>
