<svg xmlns="http://www.w3.org/2000/svg"
 viewBox="0 0 1242.000000 237.000000"
 preserveAspectRatio="xMidYMid meet">
<g transform="translate(0.000000,237.000000) scale(0.100000,-0.100000)"
fill="#0B0B0D" stroke="none">
<path d="M968 2340 c-42 -16 -195 -79 -340 -141 -144 -62 -317 -133 -383 -159
-90 -36 -130 -58 -162 -88 -85 -82 -78 2 -81 -976 -3 -968 -6 -916 63 -916 19
0 54 9 77 20 24 10 147 62 273 114 338 138 342 140 365 178 20 32 20 48 20
763 0 702 1 731 19 761 12 19 34 37 54 43 33 11 54 4 398 -133 267 -107 370
-152 387 -171 26 -31 23 42 25 -725 l2 -673 c0 -50 8 -86 19 -86 11 -12 31 -21 47 -21 24 0 296 106 358 140 11 5 30 27 43 47 l23 38 l0 654 l0 836 -27 46 c-48
81 -77 98 -404 233 -170 71 -371 155 -447 187 -165 71 -208 75 -329 29z"/>
<path d="M8270 1726 c-127 -36 -228 -117 -278 -224 -23 -49 -27 -70 -27 -152
1 -75 5 -104 22 -140 51 -111 145 -174 343 -229 263 -74 262 -73 302 -111 35
-34 38 -41 38 -93 0 -45 -5 -61 -25 -85 -78 -92 -265 -105 -384 -26 -40 26
-91 108 -91 146 0 24 -7 23 -133 -14 l-109 -32 6 -30 c11 -57 67 -156 116
-206 97 -96 255 -147 423 -136 157 10 253 45 333 118 60 55 93 116 111 204 14
67 13 81 -1 148 -20 89 -60 152 -126 201 -69 51 -138 78 -312 125 -169 46
-230 75 -254 122 -35 67 5 155 85 191 62 27 160 27 223 -1 52 -23 101 -82 120
-144 6 -21 16 -37 22 -35 6 2 57 19 114 38 119 39 116 34 60 146 -52 106 -155
188 -273 219 -62 17 -244 17 -305 0z"/>
<path d="M2934 1711 c-2 -2 -4 -294 -4 -648 l0 -643 415 0 416 0 -3 113 -3
112 -287 3 -288 2 -2 533 -3 532 -118 0 c-65 0 -120 -2 -123 -4z"/>
<path d="M4864 1711 c-2 -2 -4 -294 -4 -648 l0 -643 114 0 c109 0 114 1 120
23 3 12 6 32 6 45 0 21 3 20 51 -18 62 -49 130 -70 224 -70 177 0 304 82 383
247 33 70 36 85 40 186 7 172 -31 294 -121 388 -146 153 -390 171 -540 39
l-37 -32 0 246 0 246 -116 -3 c-63 -1 -117 -4 -120 -6z m562 -600 c51 -23 111
-93 125 -145 6 -23 9 -75 7 -117 -5 -92 -37 -155 -100 -197 -37 -24 -51 -27
-129 -27 -81 0 -90 2 -131 30 -150 105 -138 365 21 447 65 34 144 37 207 9z"/>
<path d="M5920 1069 l0 -649 110 0 109 0 7 50 7 50 47 -44 c64 -60 131 -79
248 -74 112 6 185 34 255 98 97 88 147 218 147 376 0 148 -42 261 -130 353
-98 102 -248 143 -389 107 -60 -15 -161 -76 -161 -97 0 -5 -4 -9 -10 -9 -6 0
-10 88 -10 244 l0 244 -115 0 -115 -1 0 -648z m548 45 c90 -37 142 -126 142
-244 0 -101 -29 -165 -96 -211 -43 -30 -58 -34 -124 -37 -70 -3 -79 -1 -130
30 -75 46 -110 112 -110 210 0 39 5 88 12 109 15 52 73 117 122 140 50 23 134
24 184 3z"/>
<path d="M11577 1714 c-4 -4 -7 -297 -7 -651 l0 -643 120 0 120 0 0 138 0 138
43 42 44 43 99 -143 c54 -78 110 -160 124 -180 l24 -38 139 0 c108 0 137 3
131 13 -4 6 -62 89 -129 182 -195 275 -228 322 -224 333 2 6 77 90 167 187 89
97 162 181 162 186 0 5 -63 9 -139 9 l-139 0 -148 -167 -149 -168 -5 360 -5
360 -111 3 c-60 1 -113 -1 -117 -4z"/>
<path d="M9120 1466 l0 -135 -82 -3 -83 -3 0 -100 0 -100 83 -3 82 -3 0 -248
c0 -290 6 -318 79 -391 38 -38 59 -50 113 -65 71 -19 168 -17 238 4 64 20 64
18 33 124 -27 93 -29 96 -53 89 -14 -4 -49 -7 -78 -7 -44 0 -57 4 -73 24 -17
21 -19 42 -19 247 l0 224 115 0 115 0 0 105 0 105 -115 0 -114 0 -3 133 -3
132 -117 3 -118 3 0 -135z"/>
<path d="M4157 1335 c-158 -40 -275 -152 -326 -313 -30 -93 -27 -245 8 -334
47 -122 156 -227 275 -264 78 -25 228 -30 306 -9 163 42 282 171 320 346 18
80 8 220 -19 291 -48 126 -164 236 -285 274 -73 22 -208 27 -279 9z m218 -224
c106 -48 163 -178 134 -307 -26 -114 -110 -184 -223 -184 -145 1 -239 99 -239
251 0 114 61 212 155 246 49 17 128 15 173 -6z"/>
<path d="M9962 1335 c-76 -17 -132 -48 -189 -106 -37 -37 -83 -123 -72 -133 2
-2 48 -17 102 -34 l98 -30 10 26 c29 77 121 116 218 92 55 -13 100 -54 102
-93 1 -22 -2 -60 -4 -64 -1 -1 -63 -8 -138 -17 -75 -9 -165 -25 -201 -36 -159
-49 -234 -164 -207 -319 25 -138 138 -221 303 -221 99 0 168 22 222 72 42 38
44 39 44 17 1 -68 3 -69 117 -69 l104 0 -3 338 c-5 380 -7 394 -80 477 -49 55
-98 82 -187 101 -81 17 -156 17 -239 -1z m278 -547 c0 -136 -63 -201 -195
-202 -84 -1 -119 18 -136 73 -14 48 7 93 54 117 25 13 183 45 265 53 8 1 12
-13 12 -41z"/>
<path d="M10940 1336 c-131 -28 -249 -120 -307 -237 -44 -89 -56 -155 -51
-269 4 -85 9 -105 41 -171 81 -169 229 -259 427 -259 178 0 323 78 389 208 40
79 41 77 -54 111 -121 44 -135 46 -135 27 0 -23 -65 -91 -104 -110 -48 -23
-147 -21 -194 3 -88 46 -132 125 -132 240 0 80 30 151 83 198 101 89 264 65
327 -50 13 -23 24 -43 25 -44 1 -2 46 12 101 31 66 22 100 38 102 49 6 29 -39
105 -96 162 -106 107 -258 147 -422 111z"/>
<path d="M6954 1316 c-3 -8 -4 -151 -2 -318 4 -286 5 -306 27 -360 28 -72 93
-145 163 -183 45 -25 67 -30 144 -33 113 -5 173 12 238 69 l46 41 0 -91 c0
-105 -13 -145 -58 -183 -44 -37 -95 -51 -159 -45 -70 7 -116 37 -143 92 -12
25 -23 45 -25 45 -7 0 -211 -62 -214 -66 -2 -2 10 -32 28 -68 58 -118 167
-191 310 -207 227 -26 399 65 473 250 23 56 23 59 23 561 l0 505 -115 0 -115
0 -5 -280 c-6 -309 -7 -319 -72 -369 -75 -57 -179 -56 -241 2 -61 57 -62 62
-67 367 l-5 280 -113 3 c-92 2 -113 0 -118 -12z"/>
</g>
</svg>
